<?xml version="1.0" standalone="no"?>
<!DOCTYPE svg PUBLIC "-//W3C//DTD SVG 20010904//EN"
 "http://www.w3.org/TR/2001/REC-SVG-20010904/DTD/svg10.dtd">
<svg version="1.0" xmlns="http://www.w3.org/2000/svg"
 width="500.000000pt" height="500.000000pt" viewBox="0 0 500.000000 500.000000"
 preserveAspectRatio="xMidYMid meet">
<metadata>
Created by potrace 1.14, written by Peter Selinger 2001-2017
</metadata>
<g transform="translate(0.000000,500.000000) scale(0.100000,-0.100000)"
fill="#000000" stroke="none">
<path d="M2328 4995 c-1 -1 -39 -5 -83 -9 -275 -22 -624 -126 -890 -263 -610
-316 -1075 -884 -1259 -1539 -27 -98 -31 -114 -52 -224 -48 -255 -54 -600 -14
-840 5 -30 12 -71 15 -90 29 -176 126 -459 225 -655 120 -237 264 -436 452
-626 118 -119 144 -142 248 -222 41 -31 80 -61 85 -65 19 -15 151 -100 191
-122 181 -103 417 -202 579 -245 95 -25 288 -65 292 -61 3 2 18 0 35 -5 76
-21 385 -30 565 -15 88 7 116 10 173 21 14 3 43 7 65 11 52 7 223 49 300 74
278 89 582 251 800 427 540 435 878 1068 932 1743 14 180 7 435 -17 575 -6 33
-13 76 -16 95 -50 302 -203 674 -393 950 -240 351 -576 642 -956 829 -77 38
-160 77 -185 86 -207 75 -349 114 -505 139 -138 23 -206 28 -382 31 -111 2
-203 2 -205 0z"/>
</g>
</svg>
