<?xml version="1.0" standalone="no"?>
<!DOCTYPE svg PUBLIC "-//W3C//DTD SVG 20010904//EN"
 "http://www.w3.org/TR/2001/REC-SVG-20010904/DTD/svg10.dtd">
<svg version="1.0" xmlns="http://www.w3.org/2000/svg"
 width="260.000000pt" height="260.000000pt" viewBox="0 0 260.000000 260.000000"
 preserveAspectRatio="xMidYMid meet">
<metadata>
Created by potrace 1.14, written by Peter Selinger 2001-2017
</metadata>
<g transform="translate(0.000000,260.000000) scale(0.100000,-0.100000)"
fill="#000000" stroke="none">
<path d="M1373 2513 c9 -2 25 -2 35 0 9 3 1 5 -18 5 -19 0 -27 -2 -17 -5z"/>
<path d="M1515 2491 c132 -34 352 -123 398 -161 19 -16 24 -45 5 -34 -7 4 -8
3 -4 -4 10 -16 24 -15 28 3 2 11 8 10 28 -6 21 -17 22 -19 3 -10 -48 24 -28
-8 35 -56 37 -28 85 -71 107 -94 34 -37 31 -35 -20 10 -109 98 -316 230 -365
234 -11 1 -20 5 -20 10 0 5 -10 5 -21 2 -16 -5 -19 -4 -14 6 6 9 3 11 -8 6
-10 -4 -17 -2 -17 4 0 6 -7 9 -15 5 -8 -3 -15 -1 -15 5 0 7 -10 9 -26 5 -15
-4 -23 -3 -20 3 8 13 -39 23 -82 16 -27 -4 -31 -3 -17 4 13 6 -6 8 -60 6 -69
-2 -73 -2 -25 5 l55 7 -72 1 -73 2 0 -40 0 -40 48 0 c26 0 88 -7 137 -14 50
-8 94 -12 98 -9 5 3 15 -3 22 -13 9 -11 14 -14 15 -6 0 17 20 15 20 -3 0 -8 5
-15 10 -15 6 0 10 5 10 10 0 6 5 10 10 10 6 0 10 -7 10 -16 0 -11 6 -14 20 -9
11 3 20 2 20 -4 0 -21 189 -120 237 -123 38 -2 103 -48 68 -48 -8 0 -15 5 -15
10 0 6 -4 10 -10 10 -5 0 -7 -20 -4 -47 5 -42 3 -51 -19 -72 -32 -30 -70 -23
-95 18 -9 15 -24 27 -33 26 -12 -2 -14 5 -12 29 3 26 2 28 -7 13 -10 -15 -13
-16 -26 -2 -9 8 -20 15 -25 15 -16 0 -10 -17 9 -25 15 -7 14 -9 -7 -14 -23 -6
-23 -7 -5 -21 10 -9 15 -10 10 -2 -9 16 -1 15 33 -3 16 -8 31 -21 35 -30 4
-13 -1 -11 -25 5 -16 12 -33 19 -36 16 -4 -4 2 -13 13 -20 10 -8 28 -22 39
-30 18 -14 18 -15 2 -10 -17 6 -18 5 -5 -15 12 -20 14 -20 25 -4 7 9 15 14 18
11 8 -8 -45 -49 -55 -43 -4 2 -7 -8 -6 -22 1 -34 23 -42 34 -12 l9 23 5 -22
c8 -29 72 -32 87 -3 6 10 7 21 4 25 -3 3 -1 6 6 6 7 0 9 5 6 10 -3 6 -1 10 5
10 6 0 8 5 5 10 -3 6 -1 10 5 10 6 0 8 5 4 12 -4 7 -3 8 4 4 7 -4 21 -1 33 7
13 9 16 17 10 22 -13 7 -15 45 -3 45 5 0 23 -13 42 -30 18 -16 37 -27 41 -24
5 3 9 0 9 -6 0 -6 5 -8 10 -5 6 3 10 1 10 -6 0 -7 3 -9 7 -6 10 10 55 -44 49
-59 -3 -8 -1 -14 5 -14 6 0 9 -18 7 -42 -2 -33 1 -43 12 -43 10 0 30 -38 57
-105 40 -101 46 -117 72 -185 6 -17 12 -69 12 -115 2 -117 2 -117 -16 -94 -14
19 -14 19 -15 -2 0 -12 7 -24 15 -28 8 -3 15 -10 15 -17 0 -6 -7 -8 -16 -5
-13 5 -15 2 -11 -14 5 -19 -3 -100 -19 -189 -5 -29 -3 -33 8 -23 11 9 13 6 12
-16 -1 -15 -3 -33 -3 -39 -1 -7 -10 -13 -21 -13 -11 0 -20 -5 -20 -11 0 -5 5
-7 10 -4 13 8 13 -11 0 -54 -5 -19 -8 -36 -6 -39 2 -2 17 35 32 82 47 143 40
83 -10 -89 -4 -11 1 -4 10 15 30 64 65 204 71 288 3 45 11 85 16 89 14 9 2
-156 -18 -242 -23 -96 -66 -206 -119 -298 -25 -43 -38 -73 -29 -65 9 7 17 11
19 8 1 -3 6 -1 11 4 5 5 3 6 -4 2 -16 -9 -16 -1 -2 25 5 11 14 17 19 14 5 -3
14 4 20 16 8 15 9 19 1 15 -14 -9 -14 -3 0 28 7 14 16 23 22 19 6 -3 7 -1 4 5
-9 13 2 44 13 37 5 -3 6 5 3 17 -4 19 -3 20 6 8 9 -13 11 -12 9 5 -2 34 2 56
10 52 4 -3 8 8 8 25 1 17 6 33 12 37 6 4 11 15 10 26 0 11 7 45 16 75 l16 55
-5 -45 c-10 -83 -47 -214 -86 -304 -26 -62 -35 -94 -29 -105 7 -12 21 9 59 89
92 195 121 320 121 530 0 205 -29 334 -115 517 -119 253 -331 463 -590 584
-83 39 -293 100 -339 98 -11 0 11 -8 49 -18z m35 -90 c78 -20 194 -61 188 -66
-2 -2 -35 7 -74 21 -39 13 -115 31 -170 39 -165 27 -191 35 -99 30 44 -2 114
-13 155 -24z m-3 23 c-3 -3 -12 -4 -19 -1 -8 3 -5 6 6 6 11 1 17 -2 13 -5z
m648 -384 c10 -11 16 -20 13 -20 -3 0 -13 9 -23 20 -10 11 -16 20 -13 20 3 0
13 -9 23 -20z m-165 -14 c0 -3 -4 -8 -10 -11 -5 -3 -10 -1 -10 4 0 6 5 11 10
11 6 0 10 -2 10 -4z m385 -563 c8 -59 18 -120 20 -135 4 -24 1 -28 -20 -28
-14 0 -25 5 -25 10 0 6 7 10 15 10 12 0 14 10 9 58 -6 55 -27 190 -39 242 -3
14 1 8 9 -12 8 -20 22 -86 31 -145z m16 139 c-4 -1 -7 -15 -5 -30 l4 -27 -9
28 c-11 34 -3 67 10 45 5 -7 5 -14 0 -16z m6 -94 c-3 -8 -6 -5 -6 6 -1 11 2
17 5 13 3 -3 4 -12 1 -19z m10 -65 c-3 -10 -5 -4 -5 12 0 17 2 24 5 18 2 -7 2
-21 0 -30z m10 -215 c-2 -35 -3 -9 -3 57 0 66 1 94 3 63 2 -32 2 -86 0 -120z
m-70 -90 c-3 -7 -5 -2 -5 12 0 14 2 19 5 13 2 -7 2 -19 0 -25z"/>
<path d="M1193 2453 c9 -2 25 -2 35 0 9 3 1 5 -18 5 -19 0 -27 -2 -17 -5z"/>
<path d="M1268 2453 c7 -3 16 -2 19 1 4 3 -2 6 -13 5 -11 0 -14 -3 -6 -6z"/>
<path d="M1268 2433 c7 -3 16 -2 19 1 4 3 -2 6 -13 5 -11 0 -14 -3 -6 -6z"/>
<path d="M1190 2409 c-340 -37 -635 -223 -833 -525 -94 -143 -139 -272 -157
-453 -6 -52 -13 -97 -16 -100 -4 -3 -5 50 -2 119 2 69 2 110 0 92 -2 -18 -6
-31 -10 -28 -4 2 -8 -26 -9 -63 -2 -36 -5 -81 -8 -98 -5 -30 -4 -33 20 -33 14
0 25 -4 25 -10 0 -5 -13 -10 -30 -10 -24 0 -30 -4 -30 -22 0 -19 2 -20 11 -8
7 11 8 -9 4 -68 -3 -46 -3 -82 2 -79 4 3 8 -15 9 -40 1 -25 6 -48 13 -52 6 -4
9 -14 6 -23 -9 -24 34 -140 102 -273 39 -76 110 -173 180 -245 58 -60 76 -94
54 -102 -5 -1 2 -11 16 -22 24 -18 24 -18 11 3 -10 17 -10 23 1 33 11 10 12
10 7 1 -5 -8 -1 -13 11 -13 19 -1 94 -53 94 -67 1 -4 3 -10 6 -13 4 -3 3 1 -2
9 -5 9 -3 12 6 9 8 -3 13 -11 11 -17 -1 -7 2 -10 7 -7 5 3 40 -12 77 -33 127
-72 327 -126 424 -114 27 3 31 2 20 -6 -12 -8 -7 -11 20 -11 47 0 58 9 63 50
l4 35 1 -37 c2 -44 -6 -43 142 -23 181 26 346 89 503 192 37 24 67 46 67 49 0
5 -52 -15 -65 -25 -29 -24 -220 -113 -290 -136 -88 -28 -238 -56 -300 -54 -40
1 -40 1 13 13 30 6 50 14 46 19 -4 4 5 7 20 7 15 0 25 -4 22 -8 -3 -5 9 -6 26
-4 22 3 27 7 17 14 -9 6 1 8 31 4 34 -5 41 -4 30 5 -12 8 -9 9 13 4 20 -4 27
-2 22 6 -5 8 -1 9 14 4 13 -4 21 -2 21 5 0 6 4 9 8 6 13 -8 104 29 95 38 -4 4
1 4 11 0 14 -5 17 -4 12 4 -4 7 -4 13 1 13 4 1 17 3 28 4 21 2 85 32 85 40 0
2 -6 2 -14 -1 -8 -3 -17 -1 -21 5 -3 6 -3 11 2 12 4 0 17 3 28 6 11 2 28 5 37
6 9 1 16 6 15 12 -1 5 6 9 15 9 10 -1 16 2 13 6 -3 5 17 24 43 44 60 43 134
122 156 164 9 18 20 32 25 32 5 0 16 11 24 24 15 22 15 25 -1 38 -15 11 -15
11 -5 -3 11 -13 8 -20 -17 -44 -17 -16 -30 -25 -30 -20 0 5 -18 -9 -40 -30
-22 -21 -40 -34 -40 -27 0 7 4 12 9 12 13 0 19 32 10 55 -7 18 -8 18 -8 2 -2
-53 -76 -117 -136 -117 -14 0 -42 9 -63 19 -35 18 -78 21 -101 6 -7 -4 -2 -18
13 -38 13 -18 31 -47 40 -64 17 -33 36 -44 36 -20 0 20 102 80 138 82 32 1 56
20 46 37 -3 4 1 5 9 2 9 -3 29 12 51 38 19 24 36 37 36 29 0 -28 -173 -185
-246 -223 -39 -21 -75 -34 -78 -30 -4 3 -4 -2 0 -13 7 -17 6 -18 -8 -7 -13 10
-22 11 -38 2 -33 -17 -33 -7 -3 31 17 21 35 33 46 31 23 -5 22 2 -14 51 l-31
42 7 -37 c6 -29 2 -45 -14 -71 -22 -35 -70 -84 -57 -57 4 8 -5 1 -21 -16 -27
-31 -30 -31 -83 -24 -77 11 -87 17 -112 61 -12 21 -29 39 -37 40 -11 0 -12 2
-3 6 6 2 12 15 12 28 0 32 -38 130 -61 153 -10 11 -15 23 -12 26 4 3 2 6 -4 6
-7 0 -10 19 -10 48 1 31 6 47 15 46 34 -3 37 -4 22 -14 -12 -8 -10 -10 10 -10
24 -1 24 -1 -5 -15 l-30 -14 29 6 c24 5 28 3 23 -11 -4 -10 -1 -16 6 -16 9 0
12 -13 11 -40 -1 -22 2 -37 7 -34 8 5 13 -12 12 -44 -1 -10 2 -10 15 0 10 8
13 9 9 1 -4 -6 -3 -22 2 -35 8 -18 10 -19 10 -5 1 18 37 56 53 57 17 0 88 35
88 43 0 4 -17 5 -37 2 -36 -6 -37 -5 -19 9 24 19 31 20 58 5 18 -10 20 -9 14
7 -4 11 -9 26 -11 35 -5 23 -28 59 -38 59 -4 0 -6 4 -2 9 3 5 0 13 -6 16 -7 5
0 14 18 26 21 14 24 19 10 19 -10 0 -15 5 -12 10 3 6 2 10 -4 10 -5 0 -13 -4
-16 -10 -3 -5 -1 -10 5 -10 6 0 8 -4 5 -10 -9 -15 -24 -12 -21 4 4 27 32 60
45 52 7 -5 10 -14 7 -22 -3 -9 0 -11 11 -7 11 4 14 2 9 -5 -4 -7 -1 -12 8 -12
12 0 16 -11 17 -37 0 -21 2 -48 5 -60 5 -31 43 -120 43 -105 1 7 5 10 11 7 5
-3 18 -1 27 4 16 9 16 10 -3 11 -12 0 -25 7 -28 16 -8 21 -8 24 5 24 5 0 7 -6
3 -12 -5 -10 -4 -10 6 -1 11 10 11 15 -1 29 -8 10 -9 15 -2 11 6 -4 14 -3 18
3 3 5 1 10 -5 10 -7 0 -10 6 -7 14 3 8 1 17 -6 20 -7 3 -3 8 10 11 13 4 20 12
16 21 -3 8 0 14 6 14 6 0 11 5 11 11 0 6 -7 8 -17 4 -14 -5 -15 -3 -6 6 6 6 9
18 6 25 -8 21 42 40 71 26 20 -9 25 -8 31 6 5 13 8 14 14 3 7 -10 10 -10 16
-1 6 9 10 9 16 -1 8 -12 10 -12 18 0 7 11 9 11 14 0 5 -12 7 -12 15 0 7 10 14
11 31 2 12 -7 19 -17 15 -23 -4 -6 -1 -9 7 -6 7 2 19 19 26 36 14 35 12 39
-11 17 -22 -22 -49 -8 -41 22 6 24 5 24 -17 9 -28 -20 -59 -20 -84 -1 -17 14
-18 15 0 9 10 -4 22 -1 28 7 8 11 8 10 4 -5 -5 -14 -2 -17 10 -12 8 3 18 6 20
6 3 0 3 4 -1 10 -3 5 6 17 20 26 21 14 25 22 20 43 -3 14 -13 32 -22 39 -9 6
-12 12 -6 12 7 0 19 -7 27 -16 15 -14 17 -13 26 12 6 15 13 24 16 21 8 -8 33
16 27 26 -4 6 12 11 30 8 4 0 7 4 7 9 0 6 16 9 37 8 32 -3 38 0 43 22 6 24 6
24 13 -8 4 -19 11 -31 17 -27 5 3 10 1 10 -5 0 -6 5 -8 10 -5 6 3 10 -1 10
-10 0 -9 4 -14 9 -11 5 4 11 0 14 -6 5 -15 25 50 34 111 5 36 3 47 -13 59 -18
13 -18 14 3 7 21 -6 22 -4 17 23 -4 17 -1 32 5 36 14 9 14 64 0 107 -21 61
-80 109 -134 109 -27 0 -30 -6 -15 -30 8 -12 10 -12 11 5 0 16 3 14 11 -8 8
-23 13 -26 25 -16 12 11 13 8 8 -14 -9 -34 11 -37 26 -4 l10 22 -5 -23 c-4
-19 -1 -22 12 -18 10 3 8 -1 -5 -10 -32 -23 -29 -34 10 -34 22 0 34 -5 34 -13
0 -10 -12 -13 -39 -11 -21 1 -36 -1 -33 -6 3 -5 0 -10 -7 -12 -6 -2 6 -15 28
-27 21 -13 33 -26 27 -28 -7 -3 -25 5 -39 16 -20 15 -31 18 -44 11 -24 -13
-67 -13 -75 0 -4 6 -11 8 -16 5 -5 -4 -6 2 -2 12 6 16 5 16 -10 4 -9 -7 -17
-25 -17 -38 0 -20 -4 -24 -17 -19 -12 5 -9 -2 9 -20 19 -20 39 -28 76 -32 45
-4 50 -2 48 14 -2 11 -1 13 1 7 6 -19 40 -16 55 5 20 26 42 28 26 2 -7 -11
-16 -20 -20 -20 -4 0 -5 -6 -2 -13 5 -14 -12 -18 -96 -20 -43 -2 -62 3 -88 21
-41 30 -72 90 -72 142 0 28 -6 45 -20 57 -11 10 -20 21 -20 25 0 5 9 8 20 8
20 0 26 11 13 23 -13 13 -9 58 4 53 7 -3 13 -1 13 3 0 10 26 9 36 -2 14 -14
21 -6 16 18 -5 30 -13 29 -147 -21 -65 -24 -91 -30 -97 -21 -16 26 -17 -3 -1
-46 13 -36 20 -44 30 -35 9 7 13 7 13 -1 0 -6 15 -11 34 -11 18 0 48 -3 66 -6
31 -7 32 -8 28 -55 -3 -27 -1 -49 4 -49 4 0 8 -4 8 -10 0 -6 -32 -10 -75 -10
l-75 0 0 28 c0 26 1 27 48 22 l47 -4 -45 -7 -45 -6 43 -1 c31 -2 49 4 65 19
22 20 22 20 2 32 -29 17 -96 26 -122 16 -16 -6 -23 -17 -23 -35 0 -37 -6 -27
-13 21 -4 27 -3 35 3 25 8 -13 10 -13 10 1 0 26 -21 79 -32 79 -5 0 -7 4 -3 9
9 16 -60 123 -112 172 -56 54 -130 102 -143 94 -6 -4 -10 -2 -10 4 0 18 -114
43 -200 44 -142 1 -240 -32 -351 -120 -97 -75 -156 -177 -185 -317 -9 -44 -13
-96 -10 -117 6 -35 -7 -64 -16 -38 -3 8 -9 6 -20 -4 -8 -9 -19 -13 -23 -9 -5
4 -5 1 -1 -6 6 -10 11 -10 22 -1 8 6 18 8 22 4 4 -4 1 -10 -6 -12 -7 -3 -16
-13 -22 -22 -8 -15 -6 -17 15 -13 14 2 26 13 28 26 3 13 4 10 4 -9 -1 -40 23
-126 40 -144 19 -18 10 -25 -23 -17 -22 6 -25 11 -20 34 4 18 4 22 -2 13 -5
-7 -12 -9 -14 -5 -3 5 -3 3 -2 -4 2 -7 -13 -28 -34 -47 -20 -19 -31 -35 -24
-35 6 0 12 -10 12 -22 0 -19 -2 -20 -10 -8 -5 8 -10 12 -10 8 0 -4 -12 -3 -27
3 -20 7 -29 6 -36 -3 -6 -9 -7 -8 -3 5 3 11 0 17 -10 17 -8 0 -12 5 -9 10 3 6
1 10 -5 10 -6 0 -15 -11 -21 -24 -7 -15 -17 -22 -29 -19 -31 8 -66 -46 -40
-62 6 -4 7 -11 4 -17 -4 -6 -2 -8 4 -4 5 3 12 0 15 -6 2 -7 8 -10 11 -6 4 3
-2 16 -13 27 -18 18 -19 24 -9 41 9 14 20 19 35 15 12 -3 23 0 26 8 3 6 4 -3
2 -22 -2 -19 -8 -37 -13 -40 -5 -3 -12 -14 -15 -25 -6 -15 -14 -17 -42 -13
-26 4 -35 2 -39 -11 -3 -12 -4 -12 -3 3 3 39 -12 47 -44 24 -16 -11 -27 -25
-23 -30 3 -5 10 -7 15 -4 5 4 13 -4 17 -16 6 -15 11 -18 16 -11 4 7 12 12 17
12 6 0 7 -5 3 -12 -4 -7 -3 -8 4 -4 7 4 12 14 12 22 0 8 8 14 17 14 13 0 14
-3 5 -12 -18 -18 -14 -32 5 -17 15 13 15 12 3 -8 -8 -12 -21 -20 -31 -18 -12
3 -16 -1 -12 -11 3 -8 12 -13 20 -10 9 4 13 1 10 -6 -2 -7 -12 -11 -22 -10
-16 3 -14 -2 10 -35 15 -21 38 -49 50 -63 12 -14 26 -38 30 -55 3 -16 12 -33
18 -37 9 -6 8 -8 -2 -8 -8 0 -4 -8 10 -20 13 -10 19 -19 12 -20 -14 0 -43 27
-43 41 0 6 -4 8 -9 5 -10 -7 -57 33 -53 45 1 5 -4 8 -10 7 -7 -2 -12 2 -11 8
1 6 -20 37 -46 70 -126 155 -217 416 -223 637 -1 68 21 210 48 304 27 96 137
327 149 315 5 -4 5 -2 2 4 -8 14 38 57 63 59 24 2 26 -8 5 -25 -8 -7 -12 -16
-10 -21 3 -4 -10 -23 -29 -42 -18 -19 -37 -43 -40 -55 -4 -13 -13 -19 -22 -15
-9 3 -14 -1 -14 -12 0 -9 9 -19 20 -22 23 -6 24 -8 10 -34 -9 -16 -7 -19 15
-19 14 0 25 4 25 9 0 5 11 8 25 7 14 0 25 -5 25 -10 0 -5 2 -7 5 -4 9 9 -6 38
-17 32 -11 -7 -37 24 -38 44 0 7 5 10 12 6 7 -5 8 -3 3 6 -6 10 -11 10 -20 -3
-16 -22 -26 -22 -18 1 9 27 75 111 91 117 13 5 13 3 1 -14 -57 -79 -61 -86
-26 -46 30 34 38 38 54 29 14 -9 21 -8 32 3 14 16 33 13 39 -5 2 -7 -2 -10
-11 -6 -8 3 -18 1 -21 -4 -3 -5 8 -8 24 -6 17 2 30 -1 30 -6 0 -12 61 -45 78
-42 7 2 11 -1 10 -5 -2 -4 5 -19 15 -33 9 -13 17 -21 17 -17 0 5 11 -4 23 -19
22 -25 26 -26 43 -13 15 10 18 22 14 44 -3 17 -10 29 -15 28 -6 -2 -10 1 -10
7 0 5 -6 15 -13 22 -11 11 -12 9 -7 -7 4 -16 3 -15 -6 3 -7 12 -16 22 -22 22
-5 0 -7 7 -4 15 8 19 -13 31 -24 14 -7 -12 -9 -11 -9 1 0 17 -37 61 -94 110
l-37 33 -24 -23 c-18 -17 -22 -27 -15 -35 8 -9 4 -14 -14 -17 -16 -3 -27 0
-31 10 -3 8 -12 11 -20 8 -30 -11 -14 12 53 75 118 114 218 181 355 238 116
48 348 94 362 72 3 -7 -2 -11 -15 -11 -12 0 -19 -4 -15 -10 3 -5 13 -6 22 -3
11 4 14 3 9 -5 -4 -7 -17 -12 -29 -13 -12 0 -16 -3 -10 -6 9 -3 10 -10 3 -24
-8 -15 -7 -17 4 -13 8 3 17 13 19 22 3 10 5 -42 6 -115 0 -72 -2 -134 -6 -136
-5 -3 -8 27 -7 66 0 42 -1 52 -3 24 -2 -28 -8 -45 -14 -41 -5 3 -16 0 -24 -6
-11 -9 -15 -9 -15 -1 0 15 -40 14 -41 -1 0 -7 -2 -23 -5 -35 -2 -12 1 -25 6
-28 13 -8 13 -35 0 -35 -5 0 -10 8 -10 17 0 14 -4 12 -17 -7 -9 -14 -22 -29
-27 -33 -12 -8 36 1 72 14 29 11 32 11 32 0 0 -5 -23 -17 -50 -26 -54 -18 -59
-42 -6 -30 54 12 96 15 96 5 0 -5 -12 -12 -27 -15 -16 -3 -42 -13 -60 -22 -26
-13 -30 -19 -24 -37 7 -17 16 -21 47 -20 22 1 42 -3 45 -9 4 -5 16 0 28 12 12
12 27 19 32 15 17 -10 25 11 24 61 -2 45 -2 45 32 45 20 0 32 -4 28 -10 -3 -5
-8 -25 -9 -44 -3 -28 -1 -33 12 -29 12 5 14 0 10 -25 -6 -39 4 -40 31 -6 12
15 21 22 21 16 0 -6 10 -12 22 -14 12 -2 28 -14 35 -28 7 -14 17 -25 23 -24 5
1 18 2 28 3 12 1 18 10 19 34 1 17 6 50 12 71 12 47 5 65 -15 39 -13 -17 -13
-17 -14 5 0 27 -8 28 -27 5 -13 -16 -14 -15 -8 12 6 28 6 29 -13 12 -25 -23
-35 -22 -22 2 16 31 12 36 -11 15 -17 -16 -20 -27 -17 -66 4 -41 3 -48 -13
-48 -22 0 -33 16 -18 25 5 4 10 23 9 44 -1 20 -1 38 0 41 1 3 3 17 4 33 1 19
-2 26 -11 23 -19 -8 -16 11 5 23 15 9 15 10 -5 11 -28 0 -29 8 -5 26 14 12 15
13 1 8 -27 -9 -33 15 -7 25 l23 10 -22 0 c-25 1 -32 21 -8 21 22 0 18 17 -5
23 -16 4 -20 0 -21 -21 -1 -15 -3 -60 -5 -101 -3 -46 0 -79 7 -87 9 -12 4 -14
-27 -13 -22 0 -48 4 -59 9 l-20 9 20 0 c19 1 20 7 17 211 -2 157 -6 210 -15
209 -7 -1 -46 -5 -87 -10z m28 -353 c5 -26 -26 -50 -45 -35 -16 14 -17 31 -1
47 17 17 42 11 46 -12z m-620 -115 c3 -8 -1 -12 -9 -9 -7 2 -15 10 -17 17 -3
8 1 12 9 9 7 -2 15 -10 17 -17z m78 -69 c-8 -7 -25 8 -37 31 -11 21 -10 21 15
-2 14 -14 24 -26 22 -29z m824 9 c0 -14 -18 -23 -30 -16 -6 4 -8 11 -5 16 8
12 35 12 35 0z m28 -21 c0 -20 -4 -30 -14 -30 -17 0 -18 14 -2 40 7 11 13 20
14 20 0 0 1 -13 2 -30z m-758 -44 c0 -11 -19 -15 -25 -6 -3 5 1 10 9 10 9 0
16 -2 16 -4z m476 -56 c8 0 14 5 14 10 0 6 7 10 15 10 8 0 15 -4 15 -8 0 -4 8
-8 18 -8 9 0 40 -3 67 -7 33 -4 43 -4 30 2 -23 11 -10 13 23 5 12 -4 22 -13
22 -20 0 -8 5 -14 10 -14 5 0 9 3 9 8 -3 19 3 22 22 12 11 -7 18 -14 15 -17
-8 -8 13 -33 27 -33 6 0 2 7 -9 15 -10 8 -14 15 -7 15 21 0 43 -12 43 -24 0
-6 14 -17 30 -24 19 -9 30 -21 30 -33 0 -20 37 -41 55 -31 6 3 4 -2 -3 -11 -8
-9 -11 -21 -7 -26 3 -7 0 -8 -9 -5 -10 4 -18 -1 -22 -10 -5 -13 -14 -9 -51 25
-52 48 -138 90 -198 97 -45 5 -49 2 -58 -38 -9 -36 4 -50 52 -61 23 -5 60 -20
81 -34 50 -31 57 -31 92 2 l27 26 20 -24 c18 -22 18 -25 3 -30 -10 -4 -26 -16
-36 -28 -19 -21 -19 -22 2 -69 12 -26 28 -64 36 -84 14 -35 18 -38 55 -38 39
0 41 2 41 30 0 17 -10 56 -23 88 -13 31 -22 62 -20 69 2 6 -1 15 -8 19 -8 5
-10 3 -4 -7 5 -8 4 -11 0 -6 -5 4 -9 17 -10 28 -2 20 8 28 39 33 8 1 19 6 23
11 4 4 3 5 -3 2 -6 -3 -11 0 -11 8 0 23 13 18 25 -11 7 -14 8 -23 2 -19 -5 3
-10 -1 -10 -10 0 -9 13 -22 29 -28 27 -10 51 -47 30 -47 -5 0 -9 7 -9 15 0 12
-5 11 -30 -3 -30 -17 -38 -36 -20 -47 6 -4 8 -9 6 -13 -2 -4 2 -35 9 -70 45
-213 -115 -441 -336 -482 -73 -14 -100 -15 -129 -6 -17 5 -20 4 -12 -2 15 -10
13 -42 -3 -45 -5 -1 -11 10 -13 26 -4 31 -28 36 -37 7 -10 -30 -25 -24 -25 10
0 34 -14 39 -30 10 -15 -29 -32 -25 -30 8 3 44 1 47 -24 23 -31 -29 -50 -20
-34 14 15 33 3 43 -22 20 -26 -24 -48 -8 -31 23 6 11 11 23 11 26 0 11 -36 6
-48 -6 -9 -9 -13 -7 -18 6 -4 10 -2 22 5 29 20 20 11 29 -24 23 -39 -8 -45 2
-15 29 24 22 17 37 -15 29 -31 -8 -42 14 -16 32 30 22 26 34 -9 28 -26 -6 -30
-3 -30 14 0 14 8 22 23 24 35 5 16 23 -26 23 -20 0 -37 3 -37 8 0 4 7 7 15 7
8 0 15 4 15 10 0 5 11 12 25 16 14 3 25 10 25 15 0 5 -11 9 -25 9 -18 0 -25 5
-25 20 0 15 7 20 26 20 31 0 28 23 -4 28 -31 5 -27 30 5 34 33 4 41 24 14 33
-33 10 -26 35 9 35 34 0 37 5 15 26 -26 26 -19 45 15 39 18 -3 30 -1 30 5 0 6
-4 8 -10 5 -9 -6 -11 -1 -14 38 -1 6 7 11 16 9 20 -3 33 14 17 23 -13 8 38 65
58 65 7 0 13 5 13 10 0 6 5 10 11 10 5 0 7 -5 3 -12 -5 -7 -3 -8 5 -3 7 4 11
16 8 26 -4 16 -2 17 14 9 14 -8 17 -7 13 3 -4 12 10 23 60 46 5 2 6 -3 3 -12
-4 -11 -2 -14 8 -10 8 3 12 9 10 14 -7 11 40 23 60 15 8 -3 14 -2 14 2 -3 16
3 26 8 15 2 -7 11 -13 19 -13z m539 -310 c-3 -5 -23 -9 -43 -9 l-37 1 30 8
c44 11 57 11 50 0z m-35 -24 c0 -2 -7 -6 -15 -10 -8 -3 -15 -1 -15 4 0 6 7 10
15 10 8 0 15 -2 15 -4z m30 -55 c0 -5 -9 -7 -20 -4 -11 3 -20 7 -20 9 0 2 9 4
20 4 11 0 20 -4 20 -9z m58 -88 c-1 -64 -4 -80 -9 -58 -7 24 -7 22 -4 -12 3
-24 1 -43 -6 -45 -5 -2 -11 -20 -12 -41 -1 -20 -5 -37 -8 -37 -4 0 -12 -13
-19 -30 -7 -16 -27 -51 -46 -77 -34 -48 -33 -64 3 -69 10 -2 27 -5 38 -8 11
-2 27 -5 35 -5 9 -1 -1 -16 -25 -41 -41 -42 -58 -51 -48 -23 4 11 3 14 -5 9
-7 -4 -12 -2 -12 3 0 6 5 11 10 11 6 0 10 5 10 11 0 5 -4 8 -9 5 -5 -3 -12 5
-15 19 -4 14 -11 25 -16 25 -6 0 -35 -20 -66 -45 -102 -84 -191 -115 -325
-115 -149 0 -265 42 -354 128 -88 85 -122 132 -94 132 5 0 8 -4 5 -8 -8 -13
23 -52 40 -52 8 0 13 -4 10 -9 -9 -14 83 -85 154 -119 211 -101 445 -61 600
105 94 101 138 207 157 381 3 28 7 52 9 52 2 0 3 -39 2 -87z m-48 17 c0 -5 -2
-10 -4 -10 -3 0 -8 5 -11 10 -3 6 -1 10 4 10 6 0 11 -4 11 -10z m330 -10 c0
-4 -9 -15 -20 -25 -11 -10 -20 -13 -20 -7 0 6 5 14 10 17 6 4 8 10 6 14 -3 4
1 8 9 8 8 0 15 -3 15 -7z m-1922 -100 l0 -35 -9 40 c-4 22 -8 49 -7 60 0 16 2
15 8 -5 4 -14 8 -41 8 -60z m1579 38 c-3 -8 -6 -5 -6 6 -1 11 2 17 5 13 3 -3
4 -12 1 -19z m177 -38 c26 0 36 -3 28 -9 -7 -4 -25 -7 -40 -6 -15 1 -44 3 -65
3 -25 1 -36 6 -31 13 4 6 19 9 36 5 17 -3 49 -6 72 -6z m-1157 -52 c-3 -8 -6
-5 -6 6 -1 11 2 17 5 13 3 -3 4 -12 1 -19z m950 -50 c-3 -8 -6 -5 -6 6 -1 11
2 17 5 13 3 -3 4 -12 1 -19z m149 11 c24 -6 44 -16 44 -21 0 -10 -25 -4 -75
17 -38 17 -26 18 31 4z m-1070 -46 c-3 -4 -6 -1 -6 6 0 7 -4 10 -8 7 -4 -2 -9
5 -9 16 -2 21 -2 21 14 -1 8 -12 12 -25 9 -28z m1074 -30 c-11 -8 -24 -28 -29
-46 -9 -30 -9 -31 -10 -5 -1 20 -8 29 -31 37 -48 16 -35 28 30 28 54 0 58 -2
40 -14z m53 -20 c3 -5 -6 -16 -18 -26 -27 -19 -45 -6 -25 18 13 16 36 20 43 8z
m42 -23 c3 -5 1 -10 -4 -10 -6 0 -11 5 -11 10 0 6 2 10 4 10 3 0 8 -4 11 -10z
m-27 -22 c-7 -19 -38 -22 -38 -4 0 10 9 16 21 16 12 0 19 -5 17 -12z m-1128
-7 c0 -5 -7 -11 -15 -15 -8 -3 -15 -10 -15 -16 0 -14 33 -13 49 3 8 7 11 7 8
1 -4 -7 1 -18 10 -25 15 -12 16 -12 9 6 -6 17 -5 18 6 7 11 -11 9 -17 -11 -33
-12 -10 -27 -17 -31 -14 -5 3 -35 -26 -69 -65 -33 -38 -62 -66 -66 -61 -3 5
-2 12 3 15 5 3 7 20 5 38 -4 32 -3 32 9 10 l14 -22 34 35 c19 19 29 35 22 35
-7 0 -21 -9 -33 -21 -19 -19 -22 -19 -38 -5 -21 19 -32 21 -25 3 2 -7 -4 -22
-16 -32 -19 -17 -19 -19 -2 -31 16 -12 15 -14 -8 -41 l-25 -28 28 24 c15 14
27 20 27 15 0 -20 -56 -62 -87 -66 -17 -2 -31 -2 -31 1 2 11 -15 46 -26 53 -7
5 -7 8 2 8 6 0 14 -1 15 -2 2 -2 26 15 53 36 27 22 50 41 52 42 3 2 9 28 11
47 1 4 6 6 13 5 6 -2 17 8 25 22 7 14 13 19 13 13 0 -9 6 -7 18 5 10 9 17 19
16 21 -5 6 21 29 29 24 4 -2 7 1 7 6 0 6 5 11 10 11 6 0 10 -4 10 -9z m-134
-74 c13 5 13 7 2 14 -9 6 -9 9 -1 9 23 0 23 -18 0 -33 -15 -10 -29 -12 -38 -6
-10 6 -10 9 -1 9 6 0 13 10 13 23 l2 22 4 -22 c3 -15 9 -20 19 -16z m869 3 c3
-6 -1 -7 -9 -4 -18 7 -21 14 -7 14 6 0 13 -4 16 -10z m-669 -52 c21 -23 24
-29 10 -24 -16 5 -17 4 -6 -9 11 -13 5 -24 -37 -72 -27 -31 -58 -61 -68 -67
-11 -6 -22 -12 -25 -14 -2 -2 2 -7 10 -12 13 -8 12 -13 -7 -32 -22 -22 -22
-22 -45 -2 -12 10 -5 -3 17 -31 l40 -50 -34 28 c-47 39 -52 24 -8 -21 20 -21
37 -41 37 -46 0 -4 -15 8 -33 26 -18 18 -57 53 -86 77 -47 39 -52 46 -35 52
10 4 13 8 6 8 -7 1 -10 6 -6 12 3 6 15 9 25 6 11 -3 19 -1 19 4 0 5 17 26 38
48 20 21 59 62 85 90 27 29 53 48 59 45 7 -4 8 -2 4 4 -15 24 11 11 40 -20z
m601 26 c-3 -3 -12 -4 -19 -1 -8 3 -5 6 6 6 11 1 17 -2 13 -5z m-844 -44 c-26
-45 -121 -87 -137 -61 -3 5 2 8 12 7 12 -1 16 5 14 19 -3 19 -3 19 10 1 14
-17 16 -17 46 -2 18 9 39 28 48 41 23 35 29 31 7 -5z m644 15 c0 -8 -4 -15 -9
-15 -4 0 -8 7 -8 15 0 8 4 15 8 15 5 0 9 -7 9 -15z m-366 -42 c-12 -20 -14
-14 -5 12 4 9 9 14 11 11 3 -2 0 -13 -6 -23z m639 18 c0 -5 -9 -19 -21 -32
-11 -13 -17 -17 -13 -9 7 13 5 13 -9 1 -9 -7 -17 -20 -17 -29 0 -8 -3 -13 -6
-9 -13 13 8 57 34 71 33 18 32 18 32 7z m-534 -34 c-15 -72 -16 -127 -3 -127
8 0 13 10 13 22 -1 15 7 27 22 33 15 7 22 18 22 37 0 16 5 28 10 28 6 0 10
-14 10 -31 0 -17 5 -39 11 -50 8 -16 7 -25 -5 -38 -15 -16 -14 -19 9 -29 32
-15 38 -15 30 -2 -3 6 0 10 8 10 19 0 29 -24 15 -38 -6 -6 -7 -16 -2 -23 12
-20 16 -79 5 -79 -16 0 -25 -42 -11 -50 9 -5 9 -9 1 -14 -6 -4 -11 -3 -11 2 0
6 -15 -5 -34 -24 -19 -19 -43 -34 -53 -34 -10 0 -24 -5 -30 -11 -8 -8 -17 -6
-34 10 l-23 21 32 -6 c44 -9 79 2 85 27 3 12 10 18 15 15 12 -7 27 11 35 41 8
34 -12 103 -29 96 -10 -4 -11 -10 -4 -23 12 -23 13 -53 1 -46 -5 3 -11 -3 -14
-13 -2 -10 -17 -27 -32 -37 -26 -17 -29 -17 -57 -1 -16 9 -36 17 -44 17 -20 0
-18 69 2 91 15 16 14 17 -5 12 -41 -11 -46 -133 -6 -133 20 0 29 -20 16 -33
-8 -8 -15 -5 -27 11 -8 12 -22 22 -30 22 -8 0 -15 8 -15 18 -1 9 -2 24 -3 32
-1 8 -5 22 -10 30 -8 12 -7 13 6 3 15 -13 28 -8 28 9 0 5 -4 7 -9 3 -5 -3 -12
-1 -16 5 -3 5 -1 10 5 10 6 0 8 4 5 10 -10 16 14 49 55 75 l40 25 0 73 c0 41
3 77 6 80 12 12 24 -4 20 -26z m-96 -26 c0 -6 -24 -36 -54 -68 -45 -49 -52
-62 -44 -77 7 -13 7 -17 0 -12 -6 3 -20 -6 -31 -20 -12 -15 -21 -21 -21 -15 0
7 -4 9 -10 6 -5 -3 -10 -3 -10 2 1 11 37 53 46 53 4 0 3 -5 -4 -12 -7 -7 -12
-16 -12 -22 0 -5 6 -1 14 10 13 16 13 21 0 36 -10 10 -11 18 -5 22 5 4 13 1
16 -4 5 -7 12 -5 20 7 17 23 8 38 -13 21 -13 -10 -13 -8 1 9 11 12 27 20 38
18 12 -2 26 7 39 26 22 30 30 35 30 20z m251 -23 c0 -13 2 -31 4 -40 3 -19
-24 -33 -37 -20 -14 14 2 82 18 82 8 0 14 -10 15 -22z m109 0 c1 -7 1 -59 2
-115 0 -92 2 -102 20 -106 11 -3 31 -1 45 4 35 13 43 11 43 -11 0 -14 -7 -20
-24 -20 -19 0 -22 -4 -18 -25 3 -17 11 -25 26 -26 20 -2 20 -2 1 -6 -11 -2
-25 -15 -32 -28 -12 -26 -5 -33 14 -14 16 16 90 2 90 -17 0 -11 -9 -13 -36
-10 -20 3 -28 3 -18 0 20 -6 23 -24 5 -24 -9 0 -8 -4 2 -10 13 -8 12 -10 -3
-10 -10 0 -20 7 -24 16 -4 12 -8 13 -14 3 -12 -20 9 -49 36 -49 26 0 55 24 55
45 0 8 6 13 13 11 6 -3 25 -7 40 -10 36 -8 27 -22 -20 -31 -26 -5 -33 -9 -23
-15 8 -5 19 -6 25 -4 5 3 1 -2 -9 -10 -11 -9 -42 -17 -70 -18 -127 -5 -146 -4
-135 3 7 4 -9 10 -37 14 -27 3 -58 10 -69 15 -17 7 -15 9 13 9 20 1 31 5 27
11 -4 7 8 8 36 4 34 -6 41 -5 34 7 -6 11 -5 11 4 3 16 -14 51 -6 51 11 0 18
-33 28 -73 21 -17 -3 -27 -3 -20 0 7 3 3 14 -13 31 -28 30 -32 79 -9 109 8 11
15 44 16 79 1 49 3 54 9 30 6 -25 8 -20 8 25 0 42 -2 49 -8 30 -8 -24 -8 -23
-9 8 -1 20 3 31 9 27 6 -3 10 -1 10 4 0 6 -4 11 -8 11 -4 0 -8 9 -9 20 -1 15
4 20 23 20 13 0 24 -6 24 -12z m-759 -70 c24 -29 36 -47 26 -39 -20 16 -81 91
-74 91 2 0 24 -24 48 -52z m967 35 c-2 -9 -10 -18 -18 -20 -13 -4 -13 -3 0 6
13 10 13 12 0 21 -13 8 -12 10 3 10 12 0 17 -6 15 -17z m102 7 c12 -8 9 -10
-12 -10 -15 0 -30 5 -33 10 -8 13 25 13 45 0z m120 -21 c0 -6 -4 -7 -10 -4 -5
3 -10 11 -10 16 0 6 5 7 10 4 6 -3 10 -11 10 -16z m-220 -96 c0 -32 -12 -23
-15 12 -2 14 1 23 6 19 5 -3 9 -17 9 -31z m36 10 c-10 -10 -19 5 -10 18 6 11
8 11 12 0 2 -7 1 -15 -2 -18z m284 -12 c0 -11 -31 -24 -39 -16 -3 3 1 10 9 15
19 12 30 12 30 1z m-430 -11 c0 -5 -7 -10 -16 -10 -8 0 -12 5 -9 10 3 6 10 10
16 10 5 0 9 -4 9 -10z m455 -50 c-10 -11 -20 -18 -23 -15 -7 6 18 35 31 35 5
0 2 -9 -8 -20z m-979 -21 c20 -23 11 -51 -20 -57 -36 -7 -60 40 -34 66 17 17
32 15 54 -9z m21 -55 c-3 -4 -2 -15 4 -25 10 -20 -4 -28 -16 -9 -8 12 1 40 11
40 4 0 4 -3 1 -6z m-38 -63 c17 -13 19 -18 7 -18 -9 0 -16 4 -16 9 0 4 -9 8
-19 8 -11 0 -23 5 -26 10 -10 17 29 11 54 -9z m-109 -27 c0 -2 -9 0 -20 6 -11
6 -20 13 -20 16 0 2 9 0 20 -6 11 -6 20 -13 20 -16z m1066 12 c24 9 16 1 -15
-16 -18 -9 -22 -9 -16 0 5 9 1 10 -14 5 -12 -3 -21 -2 -21 4 0 12 33 20 41 9
3 -5 14 -6 25 -2z m-900 -93 c-5 -5 -136 54 -136 61 0 2 31 -10 70 -27 38 -17
68 -32 66 -34z m74 -18 c19 -7 28 -13 20 -13 -8 0 -31 6 -50 13 -19 7 -28 13
-20 13 8 0 31 -6 50 -13z m125 -30 l60 -14 -55 6 c-30 3 -64 9 -75 14 -32 13
3 10 70 -6z m138 -22 c-13 -2 -33 -2 -45 0 -13 2 -3 4 22 4 25 0 35 -2 23 -4z"/>
<path d="M1260 1719 c0 -5 5 -7 10 -4 6 3 10 8 10 11 0 2 -4 4 -10 4 -5 0 -10
-5 -10 -11z"/>
<path d="M1200 1709 c0 -5 5 -7 10 -4 6 3 10 8 10 11 0 2 -4 4 -10 4 -5 0 -10
-5 -10 -11z"/>
<path d="M1388 1713 c7 -3 16 -2 19 1 4 3 -2 6 -13 5 -11 0 -14 -3 -6 -6z"/>
<path d="M1293 1693 c9 -2 23 -2 30 0 6 3 -1 5 -18 5 -16 0 -22 -2 -12 -5z"/>
<path d="M1203 1683 c-13 -2 -23 -9 -23 -14 0 -6 -4 -8 -10 -4 -5 3 -17 -2
-27 -12 -10 -10 -30 -26 -43 -36 -20 -14 -20 -15 -3 -7 16 7 22 6 27 -6 5 -13
18 -15 71 -11 76 6 85 11 85 42 0 52 -13 60 -77 48z"/>
<path d="M1575 1670 c3 -5 11 -10 16 -10 6 0 7 5 4 10 -3 6 -11 10 -16 10 -6
0 -7 -4 -4 -10z"/>
<path d="M1600 1610 c0 -5 5 -10 11 -10 5 0 7 5 4 10 -3 6 -8 10 -11 10 -2 0
-4 -4 -4 -10z"/>
<path d="M1030 1566 c0 -2 8 -10 18 -17 15 -13 16 -12 3 4 -13 16 -21 21 -21
13z"/>
<path d="M1257 1541 c-20 -5 -38 -10 -40 -12 -1 -2 -18 -21 -37 -42 l-35 -38
40 -33 c38 -32 41 -33 67 -20 25 13 28 20 28 64 0 80 39 61 40 -20 1 -17 11
-31 33 -45 l31 -20 40 43 c29 31 42 39 48 30 11 -19 10 -30 -4 -22 -7 4 -8 3
-4 -4 8 -14 -14 -52 -30 -52 -15 0 -25 -25 -18 -47 4 -12 3 -14 -3 -6 -4 6
-15 13 -22 15 -11 2 -14 -8 -12 -43 2 -34 -2 -49 -16 -59 -15 -12 -16 -12 -5
0 17 19 15 65 -4 80 -13 12 -14 10 -3 -14 16 -35 4 -46 -54 -49 -34 -1 -46 -6
-42 -15 3 -9 -1 -11 -15 -7 -15 5 -20 2 -20 -13 0 -22 -69 -94 -82 -86 -17 11
-7 41 26 73 31 30 33 35 23 67 -7 24 -7 41 1 60 7 14 8 23 2 19 -5 -3 -10 -1
-10 5 0 6 -11 23 -24 37 -22 24 -28 25 -50 15 -15 -6 -26 -19 -26 -27 0 -10
-5 -13 -12 -9 -7 4 -8 3 -4 -5 4 -6 2 -18 -4 -26 -22 -27 -8 -127 26 -182 34
-55 123 -116 164 -111 23 3 25 8 28 56 3 44 6 53 20 50 13 -2 18 -16 20 -56 3
-59 12 -63 78 -36 83 34 135 112 151 229 5 42 -6 117 -18 110 -5 -3 -6 0 -4 8
8 20 -69 103 -112 120 -51 20 -110 27 -156 18z m141 -236 c-3 -3 -9 2 -12 12
-6 14 -5 15 5 6 7 -7 10 -15 7 -18z m2 -101 c-8 -8 -23 -20 -34 -26 -19 -10
-18 -8 3 16 26 27 53 37 31 10z m40 -21 c0 -13 -3 -13 -15 -3 -8 7 -12 16 -9
21 8 13 24 1 24 -18z m45 -52 c-10 -17 -35 6 -35 32 l0 21 21 -21 c12 -11 18
-26 14 -32z"/>
<path d="M1676 1533 c-11 -11 -6 -23 9 -23 8 0 15 4 15 9 0 13 -16 22 -24 14z"/>
<path d="M1666 1477 c3 -10 9 -15 12 -12 3 3 0 11 -7 18 -10 9 -11 8 -5 -6z"/>
<path d="M948 1455 c-6 -13 -15 -22 -21 -18 -6 3 -7 1 -3 -6 4 -6 1 -18 -8
-26 -20 -21 -30 -132 -17 -195 14 -65 51 -144 91 -192 36 -44 175 -115 241
-124 44 -6 47 -5 53 21 11 44 -1 62 -51 74 -25 7 -66 23 -92 36 l-45 25 -28
-26 c-26 -26 -68 -28 -52 -3 4 7 3 9 -4 5 -6 -3 -13 -2 -16 3 -4 5 2 12 13 16
10 3 26 14 35 24 16 18 16 21 -1 53 -10 18 -25 53 -34 77 -19 56 -38 69 -79
54 l-30 -11 0 41 c0 32 3 38 12 29 16 -16 63 -15 76 1 5 6 12 28 16 47 4 26 3
30 -3 15 -8 -16 -10 -10 -10 27 -1 77 -21 102 -43 53z"/>
<path d="M1632 1261 c-8 -5 -25 -39 -38 -77 -39 -108 -39 -110 -10 -129 14
-10 32 -15 39 -12 19 7 73 124 81 173 5 33 2 43 -10 48 -22 8 -47 7 -62 -3z"/>
<path d="M1488 1034 c-9 -9 -47 -27 -85 -40 -79 -26 -92 -41 -75 -79 12 -25
16 -27 55 -21 59 9 167 63 177 89 17 46 -38 85 -72 51z"/>
<path d="M805 890 c3 -5 13 -10 21 -10 8 0 12 5 9 10 -3 6 -13 10 -21 10 -8 0
-12 -4 -9 -10z"/>
<path d="M1090 660 c-9 -6 -10 -10 -3 -10 6 0 15 5 18 10 8 12 4 12 -15 0z"/>
<path d="M1035 592 c-42 -8 -32 -18 20 -18 30 -1 52 2 50 6 -6 10 -45 17 -70
12z"/>
<path d="M1055 480 c-3 -5 -1 -10 4 -10 6 0 11 5 11 10 0 6 -2 10 -4 10 -3 0
-8 -4 -11 -10z"/>
<path d="M866 678 c3 -5 10 -6 15 -3 13 9 11 12 -6 12 -8 0 -12 -4 -9 -9z"/>
<path d="M1260 470 c-11 -11 -20 -32 -19 -47 l1 -28 9 31 c11 39 33 58 59 51
11 -3 20 -1 20 4 0 17 -50 9 -70 -11z"/>
<path d="M1326 435 c-3 -8 -12 -15 -21 -15 -8 0 -15 -3 -16 -7 0 -5 -2 -18 -3
-30 -2 -18 2 -23 21 -23 30 0 63 34 63 65 0 37 -18 30 -22 -7 -2 -26 -8 -34
-26 -36 l-24 -4 21 21 c18 18 29 51 17 51 -2 0 -6 -7 -10 -15z"/>
<path d="M1386 2303 c-10 -10 -7 -83 4 -83 6 0 10 13 10 29 0 17 5 33 10 36 6
3 10 -1 10 -9 0 -9 5 -16 10 -16 7 0 7 6 1 19 -11 20 -35 33 -45 24z"/>
<path d="M1438 2303 c7 -3 16 -2 19 1 4 3 -2 6 -13 5 -11 0 -14 -3 -6 -6z"/>
<path d="M1020 2271 c-71 -22 -150 -61 -150 -74 0 -6 3 -7 7 -4 8 9 34 -13 28
-23 -3 -4 16 -1 43 7 26 9 66 21 90 27 23 6 42 14 42 18 0 10 -41 1 -87 -18
-26 -10 -31 -10 -27 0 3 7 29 19 59 26 53 13 70 27 57 47 -5 7 -25 5 -62 -6z
m-83 -66 c9 -24 -1 -27 -15 -5 -8 13 -8 20 -2 20 6 0 13 -7 17 -15z"/>
<path d="M1535 2276 c-40 -18 -73 -56 -85 -95 -10 -34 -2 -101 11 -101 5 0 9
-7 9 -15 0 -8 6 -15 14 -15 26 0 27 32 1 77 -22 39 -23 47 -10 60 8 8 19 11
25 8 14 -9 13 18 -2 33 -17 17 13 16 31 0 11 -10 13 -10 7 0 -5 8 0 12 12 12
10 0 24 10 30 23 8 17 11 18 11 5 1 -10 11 -23 23 -29 18 -10 24 -8 35 7 7 10
9 22 4 27 -15 15 -85 18 -116 3z m-48 -198 c-3 -8 -6 -5 -6 6 -1 11 2 17 5 13
3 -3 4 -12 1 -19z"/>
<path d="M1665 2241 c-4 -13 -3 -26 2 -30 15 -10 23 -40 13 -46 -6 -4 -10 1
-10 9 0 27 -46 49 -87 43 -63 -11 -95 -65 -68 -116 12 -25 13 -34 3 -50 -14
-24 -12 -27 25 -36 24 -6 27 -5 27 19 0 35 18 33 22 -1 2 -22 8 -27 23 -25 41
6 45 10 35 36 -5 14 -5 28 -1 31 5 2 12 -7 16 -23 l7 -27 29 33 c26 29 42 81
20 68 -12 -8 -41 3 -41 15 0 5 11 9 25 9 29 0 32 8 8 26 -17 13 -17 14 0 8 26
-9 21 12 -12 48 l-28 32 -8 -23z m-47 -63 c26 -26 8 -78 -27 -78 -18 0 -51 29
-51 46 0 34 54 56 78 32z"/>
<path d="M1563 2154 c-3 -8 2 -23 11 -32 15 -15 17 -15 32 0 21 21 11 48 -16
48 -11 0 -23 -7 -27 -16z"/>
<path d="M1211 2234 c0 -11 3 -14 6 -6 3 7 2 16 -1 19 -3 4 -6 -2 -5 -13z"/>
<path d="M1191 2183 c-1 -31 -3 -33 -40 -33 -22 0 -42 5 -44 13 -3 7 -6 5 -6
-5 -1 -15 8 -18 44 -18 49 0 60 11 52 52 -3 17 -5 15 -6 -9z"/>
<path d="M1765 2200 c-3 -5 -1 -10 4 -10 6 0 11 5 11 10 0 6 -2 10 -4 10 -3 0
-8 -4 -11 -10z"/>
<path d="M1828 2193 c7 -3 16 -2 19 1 4 3 -2 6 -13 5 -11 0 -14 -3 -6 -6z"/>
<path d="M1783 2174 c-16 -12 -16 -13 -2 -14 9 0 20 -8 23 -17 5 -12 10 -13
18 -5 6 6 17 8 24 5 26 -10 14 12 -15 29 -25 14 -32 14 -48 2z"/>
<path d="M806 2172 c-3 -6 -1 -14 5 -17 15 -10 25 3 12 16 -7 7 -13 7 -17 1z"/>
<path d="M845 2169 c-10 -15 3 -25 16 -12 7 7 7 13 1 17 -6 3 -14 1 -17 -5z"/>
<path d="M1212 2155 c0 -16 2 -22 5 -12 2 9 2 23 0 30 -3 6 -5 -1 -5 -18z"/>
<path d="M870 2145 c-10 -12 -10 -15 4 -15 9 0 16 7 16 15 0 8 -2 15 -4 15 -2
0 -9 -7 -16 -15z"/>
<path d="M780 2140 c0 -5 7 -10 16 -10 8 0 12 5 9 10 -3 6 -10 10 -16 10 -5 0
-9 -4 -9 -10z"/>
<path d="M970 2140 c-8 -5 -11 -12 -8 -16 10 -9 38 3 38 16 0 12 -10 13 -30 0z"/>
<path d="M1011 2134 c0 -11 3 -14 6 -6 3 7 2 16 -1 19 -3 4 -6 -2 -5 -13z"/>
<path d="M1030 2136 c0 -8 9 -12 23 -11 32 4 33 4 17 15 -22 14 -40 12 -40 -4z"/>
<path d="M1899 2123 c-13 -17 -13 -17 6 -3 11 8 22 16 24 17 2 2 0 3 -6 3 -6
0 -17 -8 -24 -17z"/>
<path d="M708 2110 c-17 -14 -24 -27 -21 -40 4 -16 8 -17 24 -7 10 6 19 20 19
29 0 10 5 18 10 18 6 0 10 5 10 10 0 15 -12 12 -42 -10z"/>
<path d="M832 2123 c-10 -4 -10 -8 -2 -18 7 -8 10 -22 7 -32 -4 -14 -5 -13 -6
5 -1 25 -10 28 -31 10 -12 -11 -12 -10 -1 5 17 21 9 32 -14 20 -15 -9 -15 -11
2 -30 10 -11 32 -25 48 -32 17 -7 27 -9 22 -5 -4 4 5 20 20 36 14 15 25 29 22
31 -9 8 -55 15 -67 10z"/>
<path d="M940 2110 c0 -5 5 -10 11 -10 5 0 7 5 4 10 -3 6 -8 10 -11 10 -2 0
-4 -4 -4 -10z"/>
<path d="M1075 2110 c-3 -6 1 -7 9 -4 18 7 21 14 7 14 -6 0 -13 -4 -16 -10z"/>
<path d="M1880 2089 c0 -5 5 -7 10 -4 6 3 10 8 10 11 0 2 -4 4 -10 4 -5 0 -10
-5 -10 -11z"/>
<path d="M1950 2089 c0 -6 -8 -9 -19 -6 -14 3 -17 0 -13 -15 7 -27 46 -20 50
10 2 12 -1 22 -7 22 -6 0 -11 -5 -11 -11z"/>
<path d="M930 2078 c0 -4 6 -8 14 -8 8 0 17 4 20 8 2 4 -4 8 -15 8 -10 0 -19
-4 -19 -8z"/>
<path d="M1080 2077 c0 -20 -43 -57 -67 -57 -11 0 -26 7 -33 15 -10 12 -14 12
-26 0 -8 -7 -14 -17 -14 -21 0 -5 5 -3 11 3 11 11 65 -10 81 -31 4 -6 17 -5
33 2 24 11 25 15 14 29 -12 15 -12 16 4 10 9 -3 17 -2 17 2 0 5 -5 11 -11 13
-5 2 -7 11 -4 21 4 9 11 14 16 11 5 -3 9 0 9 5 0 6 -7 11 -15 11 -8 0 -15 -6
-15 -13z"/>
<path d="M872 2065 c-16 -19 -3 -19 22 0 14 11 16 15 5 15 -8 -1 -20 -7 -27
-15z"/>
<path d="M1003 2060 c2 -8 10 -15 17 -15 7 0 15 7 17 15 4 13 3 13 -6 0 -10
-13 -12 -13 -22 0 -9 13 -10 13 -6 0z"/>
<path d="M1745 2060 c-3 -5 6 -12 20 -16 14 -3 25 -11 25 -17 0 -6 -3 -7 -7
-4 -3 4 -12 -1 -20 -11 -11 -14 -12 -14 -7 -1 3 10 -1 19 -10 22 -18 7 -31 -8
-16 -18 5 -3 10 -14 10 -23 0 -13 -2 -13 -14 3 -12 17 -17 18 -39 6 -17 -9
-23 -19 -20 -35 4 -20 4 -20 -10 -3 -19 23 -27 22 -27 -5 -1 -22 -1 -22 -15
-4 -23 30 -28 16 -26 -71 1 -45 4 -52 24 -56 19 -4 18 -4 -5 -6 -20 -1 -26 -5
-22 -16 4 -8 10 -12 15 -9 5 3 6 -2 3 -10 -3 -8 -14 -13 -25 -11 -11 2 -17 0
-14 -5 3 -5 14 -7 25 -5 12 2 21 -3 25 -15 4 -11 12 -17 21 -13 9 3 12 0 9 -8
-3 -8 4 -20 16 -27 12 -8 18 -9 15 -3 -4 5 2 12 13 16 10 3 37 26 60 52 l42
46 -25 26 c-34 36 -33 47 0 16 31 -29 49 -32 40 -7 -5 14 -4 14 9 -2 8 -11 15
-15 15 -9 0 5 10 15 23 20 21 10 21 11 -16 26 -31 13 -37 21 -32 36 12 39 -13
29 -70 -29 -33 -33 -63 -60 -68 -60 -9 0 32 63 45 68 5 2 6 8 2 13 -3 5 1 9 8
9 17 0 78 61 78 78 0 7 8 12 17 12 12 0 7 8 -17 30 -38 32 -46 35 -55 20z m41
-146 c-16 -11 -17 -16 -6 -29 15 -18 0 -21 -18 -3 -9 9 -7 17 10 35 12 13 24
20 27 17 3 -3 -3 -12 -13 -20z m-139 -66 c-3 -8 -6 -5 -6 6 -1 11 2 17 5 13 3
-3 4 -12 1 -19z m103 -22 c0 -2 -7 -6 -15 -10 -8 -3 -15 -1 -15 4 0 6 7 10 15
10 8 0 15 -2 15 -4z m-60 -55 c0 -12 -29 -23 -41 -15 -5 3 -7 10 -4 15 8 12
45 12 45 0z"/>
<path d="M875 2044 c-11 -8 -19 -22 -17 -30 3 -16 -14 -19 -23 -4 -10 15 -28
12 -22 -4 3 -8 -1 -17 -8 -20 -9 -3 -12 -12 -8 -22 9 -23 40 -54 47 -46 3 3 6
0 6 -7 0 -7 5 -9 10 -6 6 4 8 10 5 15 -3 5 12 21 34 35 38 26 39 27 25 53 -8
15 -14 33 -14 40 0 16 -10 15 -35 -4z"/>
<path d="M955 2001 c-6 -11 33 -26 43 -16 4 3 0 10 -8 15 -19 12 -27 12 -35 1z"/>
<path d="M1825 1980 c3 -5 8 -10 11 -10 2 0 4 5 4 10 0 6 -5 10 -11 10 -5 0
-7 -4 -4 -10z"/>
<path d="M2064 1981 c4 -5 -2 -7 -13 -4 -23 6 -61 -40 -61 -73 0 -13 8 -33 17
-44 15 -17 19 -18 34 -4 15 13 17 13 23 -8 5 -14 9 -18 13 -10 7 17 23 5 16
-13 -6 -16 5 -19 25 -7 7 5 10 16 6 28 -6 16 -5 17 7 7 22 -22 30 -14 13 12
-9 14 -14 31 -11 40 4 8 2 17 -3 20 -6 4 -10 1 -10 -6 0 -9 -3 -9 -14 0 -19
16 -46 3 -46 -21 0 -13 -5 -18 -14 -15 -11 4 -13 1 -9 -11 6 -15 3 -14 -15 2
-29 25 -28 36 3 36 25 0 33 14 15 25 -5 3 -10 11 -10 18 0 8 3 8 12 -1 18 -18
38 -14 38 7 0 11 6 22 13 24 6 3 2 6 -11 6 -13 1 -21 -3 -18 -8z m54 -93 c2
-9 -5 -19 -17 -23 -30 -9 -43 2 -30 26 12 23 42 21 47 -3z"/>
<path d="M2150 1953 c13 -18 25 -33 27 -33 8 0 -17 38 -33 51 -11 9 -9 2 6
-18z"/>
<path d="M902 1948 c-18 -11 -31 -22 -29 -25 5 -4 77 36 77 43 0 8 -15 2 -48
-18z"/>
<path d="M1025 1951 c-11 -5 -23 -6 -28 -4 -7 4 -77 -35 -77 -43 0 -3 5 -2 12
2 7 4 8 3 4 -5 -4 -6 -12 -9 -17 -6 -14 9 -29 -4 -23 -20 4 -10 19 -6 62 21
59 35 72 40 72 26 0 -5 -17 -16 -37 -26 -21 -10 -49 -24 -62 -33 l-23 -15 28
-29 c19 -19 31 -26 39 -19 14 12 85 42 85 36 0 -2 -34 -23 -75 -45 -80 -44
-105 -72 -84 -97 10 -13 15 -12 33 4 12 11 41 32 66 48 25 16 51 35 58 41 7 7
22 13 33 13 24 0 24 17 1 95 -18 61 -30 71 -67 56z m35 -5 c0 -3 -4 -8 -10
-11 -5 -3 -10 -1 -10 4 0 6 5 11 10 11 6 0 10 -2 10 -4z"/>
<path d="M2095 1950 c3 -5 8 -10 11 -10 2 0 4 5 4 10 0 6 -5 10 -11 10 -5 0
-7 -4 -4 -10z"/>
<path d="M2191 1890 c-2 -55 -49 -100 -103 -100 -13 0 -37 9 -55 20 l-32 19
11 -24 c6 -13 16 -21 24 -18 17 6 41 -23 79 -95 21 -39 35 -56 46 -54 31 6 28
39 -7 91 -19 28 -32 51 -29 51 2 0 16 -18 31 -39 25 -39 54 -46 54 -15 0 21
27 29 46 13 13 -11 14 -9 3 14 -9 21 -17 26 -32 21 -14 -4 -25 1 -38 17 -15
20 -15 25 -2 45 8 13 13 37 10 56 l-4 33 -2 -35z m-55 -175 c18 -36 31 -65 29
-65 -2 0 -21 29 -44 65 -22 36 -35 65 -28 65 7 0 26 -29 43 -65z m64 15 c0 -5
-4 -10 -10 -10 -5 0 -10 5 -10 10 0 6 5 10 10 10 6 0 10 -4 10 -10z"/>
<path d="M860 1885 c0 -5 5 -17 10 -25 5 -8 10 -10 10 -5 0 6 -5 17 -10 25 -5
8 -10 11 -10 5z"/>
<path d="M2150 1881 c0 -5 5 -13 10 -16 6 -3 10 -2 10 4 0 5 -4 13 -10 16 -5
3 -10 2 -10 -4z"/>
<path d="M1927 1849 c-10 -6 -14 -15 -10 -22 5 -9 3 -8 -8 0 -13 11 -18 9 -29
-12 -7 -14 -20 -27 -29 -30 -9 -3 -45 -31 -81 -64 l-64 -58 19 -29 c28 -42 43
-66 54 -90 7 -15 18 -20 38 -19 48 3 136 39 141 57 2 10 8 15 13 12 5 -3 9 0
9 7 0 7 7 4 15 -7 11 -14 14 -15 15 -4 0 37 -15 40 -69 15 -73 -34 -77 -31 -9
8 45 25 55 35 48 47 -17 27 -10 33 10 9 22 -27 25 -22 9 15 -8 16 -17 22 -28
18 -13 -5 -14 -3 -4 10 7 8 9 19 5 23 -4 5 -1 5 6 1 8 -5 12 -1 12 11 0 15 2
16 10 3 5 -8 10 -13 11 -10 0 3 2 13 4 22 2 9 -5 24 -16 34 -10 9 -16 22 -12
28 3 6 -18 -11 -48 -39 -41 -38 -45 -41 -16 -10 20 23 37 51 37 63 0 24 -6 26
-33 11z m27 -212 c-21 -12 -29 -2 -13 16 10 11 16 12 21 4 4 -7 0 -16 -8 -20z"/>
<path d="M1283 1833 c15 -2 37 -2 50 0 12 2 0 4 -28 4 -27 0 -38 -2 -22 -4z"/>
<path d="M1450 1825 c7 -9 15 -13 17 -11 7 7 -7 26 -19 26 -6 0 -6 -6 2 -15z"/>
<path d="M2040 1831 c0 -5 5 -13 10 -16 6 -3 10 -2 10 4 0 5 -4 13 -10 16 -5
3 -10 2 -10 -4z"/>
<path d="M600 1825 c0 -5 5 -17 10 -25 5 -8 10 -10 10 -5 0 6 -5 17 -10 25 -5
8 -10 11 -10 5z"/>
<path d="M843 1805 c-3 -9 -3 -18 -1 -21 3 -3 8 4 11 16 6 23 -1 27 -10 5z"/>
<path d="M881 1811 c-8 -5 -9 -11 -3 -15 5 -3 12 1 16 9 6 17 6 18 -13 6z"/>
<path d="M520 1801 c0 -10 19 -25 25 -20 1 2 -3 10 -11 17 -8 7 -14 8 -14 3z"/>
<path d="M2200 1800 c0 -5 5 -10 10 -10 6 0 10 5 10 10 0 6 -4 10 -10 10 -5 0
-10 -4 -10 -10z"/>
<path d="M910 1775 c-7 -8 -16 -12 -21 -9 -5 3 -8 0 -7 -7 2 -8 -8 -14 -24
-14 -15 -1 -31 -5 -35 -9 -4 -5 2 -6 14 -3 13 3 26 1 29 -4 8 -13 24 -11 24 3
0 7 12 22 28 35 15 12 22 22 16 23 -6 0 -17 -7 -24 -15z"/>
<path d="M560 1770 c0 -5 5 -10 11 -10 5 0 7 5 4 10 -3 6 -8 10 -11 10 -2 0
-4 -4 -4 -10z"/>
<path d="M2030 1770 c0 -5 5 -10 10 -10 6 0 10 5 10 10 0 6 -4 10 -10 10 -5 0
-10 -4 -10 -10z"/>
<path d="M746 1762 c-3 -5 1 -9 9 -9 8 0 12 4 9 9 -3 4 -7 8 -9 8 -2 0 -6 -4
-9 -8z"/>
<path d="M521 1714 c-8 -19 -16 -24 -29 -18 -96 43 -206 -32 -188 -128 7 -37
44 -86 55 -71 8 10 51 12 51 2 0 -9 68 0 93 13 10 5 17 20 17 36 0 15 4 33 9
41 6 9 4 29 -5 54 -11 32 -12 42 -2 48 9 6 18 -5 29 -33 28 -72 -2 -163 -63
-189 -15 -6 -25 -16 -22 -21 3 -5 3 -24 0 -43 -6 -30 -11 -34 -44 -38 -31 -3
-28 -4 14 -5 37 -2 54 -7 58 -18 10 -27 -3 -34 -61 -34 l-56 0 6 48 c5 40 2
50 -14 60 -27 17 -45 16 -30 -2 9 -11 9 -15 -1 -19 -7 -3 -2 -6 12 -6 24 -1
25 -4 22 -49 -4 -53 -8 -54 -88 -37 -19 4 -34 3 -38 -4 -13 -20 3 -28 46 -22
54 8 78 4 78 -14 0 -11 -6 -12 -25 -5 -16 6 -25 6 -25 -1 0 -6 -6 -6 -19 1
-11 5 -24 10 -30 10 -15 0 -14 -25 3 -39 7 -6 19 -50 25 -99 7 -48 20 -110 29
-139 16 -50 18 -51 37 -36 l20 16 -20 -7 c-16 -5 -14 -1 8 19 27 24 27 24 10
60 -9 19 -20 35 -25 35 -4 0 -5 7 -2 15 4 8 1 15 -5 15 -6 0 -11 7 -11 15 0 8
7 15 15 15 10 0 15 7 13 17 -2 10 3 18 12 18 9 0 15 10 15 24 0 14 6 26 13 29
7 2 12 -5 12 -17 0 -12 5 -21 10 -21 6 0 10 6 10 13 0 8 3 9 8 1 4 -6 22 -16
40 -22 35 -12 37 -11 45 38 4 23 4 22 6 -5 1 -16 7 -51 14 -77 l13 -48 32 23
c54 38 41 57 -23 31 -18 -7 -18 -6 -6 9 11 14 11 18 -2 23 -13 5 -14 9 -4 19
7 7 17 9 22 5 17 -14 105 -6 115 10 6 8 10 11 10 7 0 -4 9 1 21 12 14 12 19
28 17 47 l-3 28 -92 -3 -91 -3 5 41 c4 27 2 41 -6 41 -6 0 -11 -18 -11 -45 0
-32 4 -45 14 -45 8 0 16 -6 19 -13 3 -8 -1 -14 -9 -14 -8 0 -14 5 -14 11 0 6
-4 6 -11 -1 -9 -9 -16 -8 -27 4 -10 9 -12 17 -5 21 6 4 14 34 18 67 10 82 47
208 63 211 7 1 8 0 3 -2 -16 -9 8 -64 25 -57 9 3 14 0 12 -8 -2 -8 3 -14 11
-14 7 0 24 23 36 52 20 44 21 54 9 64 -8 6 -14 8 -14 4 0 -4 -6 -2 -13 4 -8 6
-17 8 -20 4 -14 -13 -6 13 13 47 20 33 20 34 1 12 -11 -12 -21 -28 -24 -35 -2
-7 -19 2 -45 26 -23 20 -47 37 -53 37 -8 0 -8 5 1 15 7 8 8 15 3 15 -5 0 -15
-12 -22 -26z m-53 -53 c29 -15 29 -94 0 -121 -23 -21 -63 -27 -73 -10 -3 6
-14 10 -24 10 -17 0 -31 25 -31 59 0 7 16 29 35 47 35 33 54 36 93 15z m-41
-383 c-3 -8 -6 -5 -6 6 -1 11 2 17 5 13 3 -3 4 -12 1 -19z m3 -28 c0 -5 -7 -7
-15 -4 -8 4 -15 8 -15 10 0 2 7 4 15 4 8 0 15 -4 15 -10z m35 0 c3 -5 -1 -10
-9 -10 -9 0 -16 5 -16 10 0 6 4 10 9 10 6 0 13 -4 16 -10z"/>
<path d="M441 1593 c-1 -7 -9 -13 -18 -13 -13 0 -14 -3 -5 -12 15 -15 37 3 29
24 -4 9 -6 10 -6 1z"/>
<path d="M738 1691 c-39 -47 -49 -75 -24 -65 7 3 13 13 12 22 0 9 4 17 11 17
6 0 15 4 20 9 5 5 3 6 -4 2 -7 -4 -13 -2 -13 3 0 6 5 12 10 12 6 1 14 2 19 3
17 2 23 14 14 29 -6 11 -16 4 -45 -32z"/>
<path d="M2060 1726 c0 -7 7 -19 15 -26 8 -7 12 -16 9 -21 -3 -5 0 -9 7 -9 7
0 9 -3 6 -7 -4 -3 -2 -12 4 -20 8 -9 8 -13 1 -13 -6 0 -14 9 -17 20 -6 20 -16
25 -28 14 -5 -5 6 -37 18 -52 1 -1 14 2 28 9 l26 12 -27 53 c-25 53 -42 68
-42 40z"/>
<path d="M2035 1710 c9 -30 13 -35 21 -27 3 3 -2 16 -11 29 l-17 23 7 -25z"/>
<path d="M2220 1717 c0 -7 6 -19 13 -26 10 -10 9 -11 -4 -6 -18 7 -36 -11 -38
-37 -3 -41 -5 -46 -17 -41 -6 2 -34 -7 -61 -21 -31 -16 -41 -25 -28 -25 11 -1
26 3 34 8 10 7 19 4 29 -7 13 -16 13 -16 8 1 -4 13 0 17 19 17 16 0 25 -6 25
-15 0 -8 5 -15 10 -15 11 0 14 23 3 34 -11 10 -12 37 -2 30 5 -3 7 -10 4 -15
-4 -5 2 -9 12 -9 24 1 72 41 56 47 -7 3 -13 9 -13 14 0 6 5 7 10 4 20 -13 9
12 -15 33 -14 12 -25 26 -25 32 0 5 -4 10 -10 10 -5 0 -10 -6 -10 -13z m14
-66 c-21 -21 -29 -19 -21 4 4 8 14 15 23 15 16 0 16 -2 -2 -19z m26 -20 c0 -5
-6 -13 -13 -19 -10 -8 -13 -6 -14 9 -1 10 5 19 13 19 8 0 14 -4 14 -9z"/>
<path d="M812 1693 c0 -31 23 -63 46 -63 12 0 12 4 -3 20 -14 15 -15 20 -4 20
9 1 7 7 -8 19 -12 10 -19 21 -16 25 4 3 2 6 -4 6 -6 0 -11 -12 -11 -27z"/>
<path d="M2000 1715 c0 -5 5 -17 10 -25 5 -8 10 -10 10 -5 0 6 -5 17 -10 25
-5 8 -10 11 -10 5z"/>
<path d="M684 1655 c-9 -14 -15 -27 -13 -30 3 -2 12 10 21 26 21 36 15 39 -8
4z"/>
<path d="M765 1644 c-11 -15 -28 -47 -37 -72 -10 -25 -22 -50 -28 -56 -20 -20
-10 -33 33 -43 l44 -9 26 58 25 58 -41 1 c-33 0 -38 2 -22 9 11 5 32 9 47 9
39 1 44 20 8 32 -20 7 -29 16 -26 25 9 23 -8 16 -29 -12z"/>
<path d="M2041 1626 c7 -15 15 -23 17 -16 3 7 -3 19 -13 28 -15 16 -16 15 -4
-12z"/>
<path d="M2014 1627 c3 -10 6 -23 6 -28 0 -5 5 -9 10 -9 14 0 12 13 -6 36 -14
17 -15 17 -10 1z"/>
<path d="M191 1604 c0 -11 3 -14 6 -6 3 7 2 16 -1 19 -3 4 -6 -2 -5 -13z"/>
<path d="M2261 1581 c-7 -5 -12 -14 -10 -20 3 -6 9 -7 18 -2 7 5 12 14 10 20
-3 6 -9 7 -18 2z"/>
<path d="M2302 1570 c0 -14 2 -19 5 -12 2 6 2 18 0 25 -3 6 -5 1 -5 -13z"/>
<path d="M2264 1534 c-18 -14 -18 -15 4 -4 12 6 22 13 22 15 0 8 -5 6 -26 -11z"/>
<path d="M577 1471 c-20 -70 -21 -85 -7 -76 6 3 10 19 10 35 0 16 5 32 10 35
9 6 5 -101 -5 -132 -3 -9 6 -13 24 -13 27 0 28 2 34 63 3 34 9 69 12 78 4 11
-1 18 -14 22 -12 3 -21 1 -21 -5 0 -5 -5 -6 -10 -3 -6 4 -8 11 -5 16 4 5 2 16
-3 24 -6 12 -13 0 -25 -44z"/>
<path d="M2066 1485 c-26 -19 -56 -66 -55 -85 0 -9 5 -6 11 8 6 13 17 21 24
18 7 -3 15 3 17 12 3 12 5 11 6 -5 0 -13 7 -23 15 -23 27 0 45 12 40 25 -3 8
-11 12 -19 9 -17 -7 -28 25 -14 42 15 18 -1 17 -25 -1z"/>
<path d="M2115 1480 c-4 -11 -11 -17 -17 -14 -7 4 -8 2 -4 -4 4 -6 13 -9 21
-5 8 3 15 0 15 -6 0 -6 7 -11 15 -11 18 0 19 14 5 41 -14 25 -27 24 -35 -1z"/>
<path d="M317 1484 c-15 -15 -6 -29 18 -30 14 -1 25 3 25 9 0 6 -3 7 -7 4 -3
-4 -11 0 -17 9 -6 8 -15 12 -19 8z"/>
<path d="M682 1452 c-1 -9 -5 -43 -8 -74 l-6 -58 36 0 c40 0 48 11 59 86 7 39
5 42 -21 48 -15 4 -34 9 -42 11 -10 3 -17 -2 -18 -13z"/>
<path d="M380 1441 c0 -6 5 -13 10 -16 6 -3 10 1 10 9 0 9 -4 16 -10 16 -5 0
-10 -4 -10 -9z"/>
<path d="M425 1415 c0 -40 10 -46 19 -12 9 34 7 47 -6 47 -8 0 -13 -14 -13
-35z"/>
<path d="M300 1400 c-6 -11 -7 -20 -2 -20 6 0 12 9 15 20 3 11 3 20 1 20 -2 0
-8 -9 -14 -20z"/>
<path d="M2127 1402 c-24 -27 -21 -59 8 -78 54 -35 115 37 65 78 -28 23 -52
23 -73 0z m67 -8 c9 -8 16 -19 16 -22 0 -14 -31 -52 -42 -52 -18 0 -48 31 -48
50 0 37 46 53 74 24z"/>
<path d="M2142 1364 c1 -9 9 -19 16 -20 7 -1 8 0 2 3 -5 2 -10 9 -10 14 0 12
27 11 33 -1 3 -6 4 -5 3 2 -1 7 -13 14 -25 16 -17 3 -22 -1 -19 -14z"/>
<path d="M2336 1397 c3 -10 9 -15 12 -12 3 3 0 11 -7 18 -10 9 -11 8 -5 -6z"/>
<path d="M2085 1375 c-5 -2 -22 -6 -37 -9 -26 -6 -38 -33 -22 -49 12 -11 74
26 74 45 0 10 -1 18 -2 17 -2 0 -7 -2 -13 -4z"/>
<path d="M2045 1300 c-3 -5 1 -10 9 -10 9 0 16 5 16 10 0 6 -4 10 -9 10 -6 0
-13 -4 -16 -10z"/>
<path d="M663 1173 c-7 -2 -13 -17 -13 -32 0 -28 -26 -61 -48 -61 -6 0 -9 -7
-6 -15 4 -8 10 -12 15 -9 5 3 9 0 9 -7 0 -7 3 -9 7 -6 8 9 34 -13 28 -23 -9
-15 24 -4 45 15 25 22 26 35 3 35 -15 0 -16 2 -3 10 9 5 19 5 27 -1 7 -6 17
-8 23 -4 7 5 0 14 -18 25 -31 19 -48 52 -37 70 6 10 -11 12 -32 3z"/>
<path d="M416 1163 c-11 -11 -6 -23 9 -23 8 0 15 4 15 9 0 13 -16 22 -24 14z"/>
<path d="M455 1159 c-10 -15 3 -25 16 -12 7 7 7 13 1 17 -6 3 -14 1 -17 -5z"/>
<path d="M385 1130 c-3 -5 3 -10 15 -10 12 0 18 5 15 10 -3 6 -10 10 -15 10
-5 0 -12 -4 -15 -10z"/>
<path d="M474 1125 c-4 -8 -9 -13 -13 -11 -4 3 -13 0 -21 -5 -12 -8 -12 -12
-2 -16 6 -2 12 -9 12 -15 0 -7 -4 -7 -13 1 -10 8 -17 7 -27 -2 -12 -10 -12 -9
-1 6 12 15 11 17 -8 17 -26 0 -27 -12 -2 -34 17 -15 25 -16 55 -6 39 13 63 35
47 44 -6 4 -8 13 -4 21 3 8 0 15 -6 15 -7 0 -14 -7 -17 -15z"/>
<path d="M2097 1052 c-15 -16 -15 -19 5 -31 12 -8 17 -16 10 -20 -14 -8 -19
-35 -8 -41 6 -3 13 9 18 27 6 23 13 31 23 27 11 -5 15 2 15 25 0 26 -4 31 -23
31 -13 0 -31 -8 -40 -18z"/>
<path d="M2175 1040 c0 -27 3 -30 25 -28 44 5 35 57 -10 58 -10 0 -15 -10 -15
-30z"/>
<path d="M2310 1035 c0 -8 4 -15 10 -15 5 0 7 7 4 15 -4 8 -8 15 -10 15 -2 0
-4 -7 -4 -15z"/>
<path d="M500 1029 c0 -5 5 -7 10 -4 6 3 10 8 10 11 0 2 -4 4 -10 4 -5 0 -10
-5 -10 -11z"/>
<path d="M526 1022 c-2 -4 -1 -14 4 -21 10 -17 31 -5 23 14 -6 16 -19 20 -27
7z"/>
<path d="M607 1011 c4 -16 1 -19 -15 -15 -12 4 -22 0 -25 -10 -6 -16 4 -22 17
-9 3 4 16 8 27 10 14 2 18 -1 13 -9 -6 -9 -3 -9 9 1 19 15 15 26 -13 41 -15 8
-17 6 -13 -9z"/>
<path d="M426 1001 c-11 -12 -17 -23 -15 -25 8 -8 41 23 37 34 -2 7 -11 3 -22
-9z"/>
<path d="M2247 1013 c-4 -3 -7 -11 -7 -17 0 -6 5 -5 12 2 6 6 9 14 7 17 -3 3
-9 2 -12 -2z"/>
<path d="M506 997 c3 -10 9 -15 12 -12 3 3 0 11 -7 18 -10 9 -11 8 -5 -6z"/>
<path d="M468 978 c-10 -10 -14 -18 -9 -18 10 0 36 29 30 34 -2 1 -12 -6 -21
-16z"/>
<path d="M2147 983 c-4 -3 -7 -15 -7 -25 0 -26 43 -20 48 5 3 15 0 18 -18 12
-15 -5 -20 -4 -16 4 8 12 3 15 -7 4z"/>
<path d="M2215 968 c2 -26 20 -35 28 -14 4 9 -1 20 -12 25 -14 8 -17 6 -16
-11z"/>
<path d="M389 938 c0 -7 -2 -27 -3 -44 -1 -17 1 -39 5 -50 7 -16 8 -17 8 -2 1
10 11 22 24 28 21 11 21 10 3 -4 -11 -9 -15 -16 -10 -16 16 0 34 23 34 43 0
10 -4 16 -9 12 -5 -3 -13 0 -16 6 -4 5 -14 8 -22 4 -13 -4 -14 -3 -4 9 8 10 9
16 1 21 -5 3 -10 0 -11 -7z"/>
<path d="M2106 918 c-11 -15 -15 -17 -12 -6 3 12 1 15 -10 11 -18 -7 -18 -11
1 -29 12 -13 16 -11 30 16 18 35 14 39 -9 8z"/>
<path d="M2128 900 c-15 -27 -15 -28 2 -33 13 -3 19 2 23 22 8 38 -6 45 -25
11z"/>
<path d="M2173 915 c-3 -9 -3 -18 -1 -21 3 -3 8 4 11 16 6 23 -1 27 -10 5z"/>
<path d="M2191 900 c-8 -24 -7 -30 4 -30 16 0 46 40 39 52 -11 18 -33 7 -43
-22z"/>
<path d="M2259 894 c-5 -15 -8 -29 -5 -31 2 -2 8 10 14 26 13 38 5 41 -9 5z"/>
<path d="M2085 824 c-15 -28 -16 -37 -6 -44 8 -4 10 -13 6 -20 -5 -9 -4 -11 3
-6 19 11 35 -3 22 -19 -7 -8 -7 -16 -2 -19 6 -3 15 1 22 9 9 11 7 18 -9 32
-29 24 -26 35 5 23 28 -11 41 -3 62 37 16 28 15 33 -4 33 -8 0 -20 -13 -25
-30 -13 -36 -27 -39 -25 -6 0 13 4 22 9 19 4 -2 7 1 7 6 0 6 -7 11 -15 11 -8
0 -15 -6 -15 -14 0 -8 -5 -18 -10 -21 -7 -4 -9 2 -4 19 9 36 2 33 -21 -10z"/>
<path d="M2267 825 c-18 -38 -38 -48 -30 -15 3 11 3 20 0 20 -12 0 -14 -40 -2
-50 11 -9 18 -3 35 30 12 23 20 44 17 46 -2 2 -11 -12 -20 -31z"/>
<path d="M2060 830 c-6 -11 -8 -20 -6 -20 3 0 10 9 16 20 6 11 8 20 6 20 -3 0
-10 -9 -16 -20z"/>
<path d="M2296 823 c-6 -14 -5 -15 5 -6 7 7 10 15 7 18 -3 3 -9 -2 -12 -12z"/>
<path d="M1898 818 c-33 -11 -34 -16 -10 -45 14 -17 22 -19 41 -12 14 6 21 15
18 23 -4 10 4 18 21 25 22 8 23 10 7 11 -11 1 -27 3 -35 4 -8 2 -27 -1 -42 -6z"/>
<path d="M1967 784 c16 -7 -5 -54 -21 -48 -7 3 -21 -5 -32 -17 -15 -18 -16
-21 -3 -16 9 3 22 0 28 -6 9 -9 11 -8 6 6 -4 10 -2 17 4 17 7 0 14 -7 17 -15
5 -11 12 -7 31 16 24 29 25 30 8 49 -10 11 -25 20 -34 19 -10 0 -11 -3 -4 -5z"/>
<path d="M2260 760 c-6 -11 -8 -20 -6 -20 3 0 10 9 16 20 6 11 8 20 6 20 -3 0
-10 -9 -16 -20z"/>
<path d="M1840 736 c-14 -37 -14 -36 20 -36 35 0 39 18 10 45 -19 17 -20 17
-30 -9z"/>
<path d="M2200 750 c-9 -6 -10 -10 -3 -10 6 0 15 5 18 10 8 12 4 12 -15 0z"/>
<path d="M2006 715 c-16 -24 -16 -25 9 -25 18 0 25 5 25 19 0 31 -16 33 -34 6z"/>
<path d="M2209 683 c-13 -16 -12 -17 4 -4 16 13 21 21 13 21 -2 0 -10 -8 -17
-17z"/>
<path d="M2300 679 c0 -5 5 -7 10 -4 6 3 10 8 10 11 0 2 -4 4 -10 4 -5 0 -10
-5 -10 -11z"/>
<path d="M1922 663 c7 -9 4 -20 -11 -39 -26 -33 -20 -44 24 -42 39 1 42 8 19
43 -13 20 -13 25 -3 25 19 -1 49 -25 49 -40 0 -10 3 -10 15 0 18 15 21 44 3
34 -9 -5 -9 -2 1 9 15 19 13 19 -71 21 -27 1 -34 -2 -26 -11z"/>
<path d="M1830 664 c0 -11 25 -54 31 -54 12 0 39 42 33 51 -4 7 -64 10 -64 3z"/>
<path d="M2216 554 c-44 -58 -106 -128 -138 -155 -113 -94 -255 -179 -366
-219 -34 -13 -61 -25 -59 -27 3 -2 33 7 68 20 204 77 380 203 512 365 74 92
93 122 76 122 -8 0 -50 -48 -93 -106z"/>
<path d="M2169 633 c-13 -16 -12 -17 4 -4 16 13 21 21 13 21 -2 0 -10 -8 -17
-17z"/>
<path d="M2204 613 c-15 -20 -23 -33 -16 -29 13 8 56 66 49 66 -3 0 -17 -17
-33 -37z"/>
<path d="M2219 593 c-13 -16 -12 -17 4 -4 16 13 21 21 13 21 -2 0 -10 -8 -17
-17z"/>
<path d="M1647 586 c-16 -13 -15 -14 10 -19 34 -6 36 -5 20 16 -10 14 -15 14
-30 3z"/>
<path d="M2095 488 c-44 -45 -61 -66 -39 -46 42 36 130 128 123 128 -3 0 -40
-37 -84 -82z"/>
<path d="M2189 553 c-13 -16 -12 -17 4 -4 16 13 21 21 13 21 -2 0 -10 -8 -17
-17z"/>
<path d="M1549 510 c-23 -23 -30 -37 -27 -62 4 -46 23 -45 23 2 0 49 18 68 76
79 l44 9 -43 1 c-36 1 -49 -4 -73 -29z"/>
<path d="M1979 503 l-24 -28 28 24 c15 14 27 26 27 28 0 8 -8 1 -31 -24z"/>
<path d="M2100 453 l-65 -68 68 65 c62 60 72 70 64 70 -1 0 -32 -30 -67 -67z"/>
<path d="M1649 488 c8 -11 9 -18 3 -18 -6 0 -13 -9 -17 -19 -4 -12 -12 -18
-21 -14 -9 3 -14 -1 -14 -12 0 -15 -2 -16 -17 -4 -15 13 -15 12 -5 -8 7 -12 9
-29 6 -37 -5 -12 1 -16 24 -16 45 0 79 19 92 50 14 33 10 72 -7 77 -8 3 -10
-6 -6 -30 4 -29 1 -37 -22 -55 -37 -30 -67 -30 -36 -1 35 33 45 69 24 88 -16
15 -16 15 -4 -1z"/>
<path d="M1728 460 c2 -22 6 -40 8 -40 2 0 4 18 4 40 0 22 -3 40 -8 40 -4 0
-6 -18 -4 -40z"/>
<path d="M445 450 c10 -11 20 -20 23 -20 3 0 -3 9 -13 20 -10 11 -20 20 -23
20 -3 0 3 -9 13 -20z"/>
<path d="M505 410 c3 -5 8 -10 11 -10 2 0 4 5 4 10 0 6 -5 10 -11 10 -5 0 -7
-4 -4 -10z"/>
<path d="M720 261 c0 -5 11 -16 25 -25 14 -9 25 -12 25 -7 0 5 -11 16 -25 25
-14 9 -25 12 -25 7z"/>
<path d="M780 221 c0 -7 100 -51 116 -51 3 0 1 7 -4 16 -14 26 -112 56 -112
35z"/>
<path d="M925 170 c-14 -5 4 -13 64 -29 45 -12 89 -20 97 -17 8 3 14 0 14 -7
0 -8 3 -8 9 2 7 10 10 10 13 1 3 -9 14 -10 38 -5 32 8 29 9 -44 21 -44 7 -84
10 -90 7 -5 -3 -6 -2 -3 3 3 6 -10 10 -29 10 -20 0 -38 5 -42 11 -4 5 -16 7
-27 3z"/>
<path d="M1538 143 c7 -3 16 -2 19 1 4 3 -2 6 -13 5 -11 0 -14 -3 -6 -6z"/>
<path d="M1618 143 c7 -3 16 -2 19 1 4 3 -2 6 -13 5 -11 0 -14 -3 -6 -6z"/>
<path d="M1488 133 c6 -2 18 -2 25 0 6 3 1 5 -13 5 -14 0 -19 -2 -12 -5z"/>
<path d="M1578 133 c7 -3 16 -2 19 1 4 3 -2 6 -13 5 -11 0 -14 -3 -6 -6z"/>
<path d="M1423 123 c9 -2 25 -2 35 0 9 3 1 5 -18 5 -19 0 -27 -2 -17 -5z"/>
<path d="M1263 113 c20 -2 54 -2 75 0 20 2 3 4 -38 4 -41 0 -58 -2 -37 -4z"/>
</g>
</svg>
